<?xml version="1.0" encoding="UTF-8"?>
<svg id="Layer_1" xmlns="http://www.w3.org/2000/svg" version="1.1" xmlns:xlink="http://www.w3.org/1999/xlink" viewBox="0 0 1280 1280">
  <!-- Generator: Adobe Illustrator 29.2.1, SVG Export Plug-In . SVG Version: 2.1.0 Build 116)  -->
  <defs>
    <style>
      .st0 {
        fill: #f7931e;
      }
    </style>
  </defs>
  <path class="st0" d="M1092.8,1006.7H185.2c-55.8,0-101.2-45.4-101.2-101.2V373.8c0-55.8,45.4-101.2,101.2-101.2h907.6c55.8,0,101.2,45.4,101.2,101.2v531.7c0,55.8-45.4,101.2-101.2,101.2ZM185.2,306.3c-37.3,0-67.6,30.3-67.6,67.6v531.7c0,37.3,30.3,67.6,67.6,67.6h907.6c37.3,0,67.6-30.3,67.6-67.6V373.8c0-37.3-30.3-67.6-67.6-67.6H185.2Z"/>
  <g>
    <g>
      <path class="st0" d="M419.2,700.9c-68.2,0-123.7-67.6-123.7-150.8s55.5-150.8,123.7-150.8,123.7,67.6,123.7,150.8-55.5,150.8-123.7,150.8ZM419.2,433c-49.7,0-90.1,52.5-90.1,117.2s40.4,117.2,90.1,117.2,90.1-52.5,90.1-117.2-40.4-117.2-90.1-117.2Z"/>
      <path class="st0" d="M598.3,880h-195.4c-9.3,0-16.8-7.5-16.8-16.8s7.5-16.8,16.8-16.8h177.7c-8.4-81.6-77.6-145.4-161.4-145.4s-152.9,63.8-161.4,145.4h41.7c9.3,0,16.8,7.5,16.8,16.8s-7.5,16.8-16.8,16.8h-59.4c-9.3,0-16.8-7.5-16.8-16.8,0-108,87.9-195.9,195.9-195.9s195.9,87.9,195.9,195.9c0,9.3-7.5,16.8-16.8,16.8Z"/>
      <path class="st0" d="M525.6,553.6c-4.5,0-9-1.8-12.3-5.3-44.5-47.6-152.1-40.1-189.8-33.2-9.1,1.7-17.9-4.4-19.6-13.5-1.7-9.1,4.4-17.9,13.5-19.6,6.2-1.1,154.3-27.3,220.4,43.3,6.3,6.8,6,17.4-.8,23.8-3.2,3-7.4,4.5-11.5,4.5Z"/>
    </g>
    <g>
      <path class="st0" d="M1037.8,534.1h-334.9c-9.3,0-16.8-7.5-16.8-16.8s7.5-16.8,16.8-16.8h334.9c9.3,0,16.8,7.5,16.8,16.8,0,9.3-7.5,16.8-16.8,16.8Z"/>
      <path class="st0" d="M1037.8,683.5h-334.9c-9.3,0-16.8-7.5-16.8-16.8s7.5-16.8,16.8-16.8h334.9c9.3,0,16.8,7.5,16.8,16.8,0,9.3-7.5,16.8-16.8,16.8Z"/>
      <path class="st0" d="M1037.8,833h-334.9c-9.3,0-16.8-7.5-16.8-16.8s7.5-16.8,16.8-16.8h334.9c9.3,0,16.8,7.5,16.8,16.8,0,9.3-7.5,16.8-16.8,16.8Z"/>
    </g>
  </g>
</svg>