<?xml version="1.0" encoding="UTF-8"?>
<svg id="Layer_1" xmlns="http://www.w3.org/2000/svg" version="1.1" xmlns:xlink="http://www.w3.org/1999/xlink" viewBox="0 0 1280 1280">
  <!-- Generator: Adobe Illustrator 29.2.1, SVG Export Plug-In . SVG Version: 2.1.0 Build 116)  -->
  <defs>
    <style>
      .st0 {
        fill: #f7931e;
      }
    </style>
  </defs>
  <g>
    <path class="st0" d="M286.9,891.3H104.7c-9.2,0-16.6-7.4-16.6-16.6v-75.1c0-9.2,7.4-16.6,16.6-16.6h38.4c9.1,0,16.6,7.4,16.6,16.6s-7.4,16.6-16.6,16.6h-21.8v41.9h165.6c9.2,0,16.6,7.4,16.6,16.6s-7.4,16.6-16.6,16.6Z"/>
    <path class="st0" d="M1166.6,891.3H496.4c-9.2,0-16.6-7.4-16.6-16.6s7.4-16.6,16.6-16.6h653.7v-41.9h-634.8c-9.2,0-16.6-7.4-16.6-16.6s7.4-16.6,16.6-16.6h651.4c9.2,0,16.6,7.4,16.6,16.6v75.1c0,9.2-7.4,16.6-16.6,16.6Z"/>
    <path class="st0" d="M269.6,816.2h-126.5c-9.2,0-16.6-7.4-16.6-16.6s7.4-16.6,16.6-16.6h126.5c9.2,0,16.6,7.4,16.6,16.6,0,9.2-7.4,16.6-16.6,16.6Z"/>
    <path class="st0" d="M1128.2,816.2c-9.2,0-16.6-7.4-16.6-16.6V198.5c0-9.2,7.4-16.6,16.6-16.6s16.6,7.4,16.6,16.6v601.1c0,9.2-7.4,16.6-16.6,16.6Z"/>
    <path class="st0" d="M143.1,816.2c-9.2,0-16.6-7.4-16.6-16.6V198.5c0-9.2,7.4-16.6,16.6-16.6s16.6,7.4,16.6,16.6v601.1c0,9.2-7.4,16.6-16.6,16.6Z"/>
    <path class="st0" d="M1166.6,215.1H104.7c-9.2,0-16.6-7.4-16.6-16.6v-75.1c0-9.2,7.4-16.6,16.6-16.6h1061.9c9.2,0,16.6,7.4,16.6,16.6v75.1c0,9.2-7.4,16.6-16.6,16.6ZM121.3,181.9h1028.7v-41.9H121.3v41.9Z"/>
  </g>
  <g>
    <path class="st0" d="M396.1,653.8c-45.9,0-83.3-41.5-83.3-92.5s37.4-92.5,83.3-92.5,83.3,41.5,83.3,92.5c0,51-37.4,92.5-83.3,92.5ZM396.1,502c-27.6,0-50.1,26.6-50.1,59.3s22.5,59.3,50.1,59.3,50.1-26.6,50.1-59.3-22.5-59.3-50.1-59.3Z"/>
    <path class="st0" d="M475.2,1165.7h-158.1c-9.2,0-16.6-7.4-16.6-16.6v-242.1l-35.1-37.5c-2.9-3.1-4.5-7.1-4.5-11.3v-178.1c0-7.5,5-14.1,12.3-16l39.5-10.6c9-2.3,18,2.9,20.3,11.7,2.4,8.9-2.9,18-11.8,20.3l-27.2,7.3v158.8l35.1,37.5c2.9,3.1,4.5,7.1,4.5,11.3v232.1h124.9v-232.1c0-3.9,1.3-7.6,3.8-10.6l36.3-44v-91.2c0-9.2,7.4-16.6,16.6-16.6s16.6,7.4,16.6,16.6v97.2c0,3.9-1.3,7.6-3.8,10.5l-36.3,44v242.7c0,9.2-7.4,16.6-16.6,16.6Z"/>
    <path class="st0" d="M514.7,696.6c-1.4,0-2.9-.2-4.3-.6l-39.5-10.6c-8.9-2.4-14.1-11.5-11.8-20.3,2.4-8.8,11.5-14,20.3-11.7l31.8,8.5,197.3-145.5c7.4-5.4,17.8-3.8,23.2,3.5,5.4,7.4,3.9,17.8-3.5,23.2l-203.7,150.3c-2.9,2.1-6.4,3.2-9.9,3.2Z"/>
    <path class="st0" d="M396.1,1165.7c-9.2,0-16.6-7.4-16.6-16.6v-203.7c0-9.2,7.4-16.6,16.6-16.6s16.6,7.4,16.6,16.6v203.7c0,9.2-7.4,16.6-16.6,16.6Z"/>
  </g>
</svg>