<?xml version="1.0" encoding="UTF-8"?>
<svg id="Layer_1" xmlns="http://www.w3.org/2000/svg" version="1.1" xmlns:xlink="http://www.w3.org/1999/xlink" viewBox="0 0 1280 1280">
  <!-- Generator: Adobe Illustrator 29.2.1, SVG Export Plug-In . SVG Version: 2.1.0 Build 116)  -->
  <defs>
    <style>
      .st0 {
        fill: #f7931e;
      }
    </style>
  </defs>
  <path class="st0" d="M873.6,1174.3H87.9c-9,0-16.2-7.3-16.2-16.2V118.6c0-9,7.3-16.2,16.2-16.2h785.7c9,0,16.2,7.3,16.2,16.2v1039.5c0,9-7.3,16.2-16.2,16.2ZM104.2,1141.8h753.2V134.8H104.2v1007Z"/>
  <g>
    <path class="st0" d="M748,649.4H213.6c-9,0-16.2-7.3-16.2-16.2v-313.9c0-9,7.3-16.2,16.2-16.2h534.4c9,0,16.2,7.3,16.2,16.2v313.9c0,9-7.3,16.2-16.2,16.2ZM229.8,616.9h501.9v-281.4H229.8v281.4Z"/>
    <path class="st0" d="M671.3,757.5h-381c-9,0-16.2-7.3-16.2-16.2s7.3-16.2,16.2-16.2h381c9,0,16.2,7.3,16.2,16.2s-7.3,16.2-16.2,16.2Z"/>
    <path class="st0" d="M671.3,865.6h-381c-9,0-16.2-7.3-16.2-16.2s7.3-16.2,16.2-16.2h381c9,0,16.2,7.3,16.2,16.2s-7.3,16.2-16.2,16.2Z"/>
    <path class="st0" d="M671.3,973.7h-381c-9,0-16.2-7.3-16.2-16.2s7.3-16.2,16.2-16.2h381c9,0,16.2,7.3,16.2,16.2s-7.3,16.2-16.2,16.2Z"/>
  </g>
  <g>
    <path class="st0" d="M1046,1174.3c-5,0-9.7-2.3-12.8-6.2l-57.3-73.4c-2.2-2.8-3.4-6.4-3.4-10V241.4c0-9,7.3-16.2,16.2-16.2h114.6c9,0,16.2,7.3,16.2,16.2v843.2c0,3.6-1.2,7.1-3.4,10l-57.3,73.4c-3.1,3.9-7.8,6.2-12.8,6.2ZM1005,1079.1l41.1,52.6,41.1-52.6V257.7h-82.1v821.4h0ZM1103.3,1084.7h.2-.2Z"/>
    <path class="st0" d="M1103.3,1042.7h-114.6c-9,0-16.2-7.3-16.2-16.2s7.3-16.2,16.2-16.2h114.6c9,0,16.2,7.3,16.2,16.2s-7.3,16.2-16.2,16.2Z"/>
    <path class="st0" d="M1187.7,654.6c-9,0-16.2-7.3-16.2-16.2v-244.3c0-24.8-20.2-45-45-45h-137.7c-9,0-16.2-7.3-16.2-16.2s7.3-16.2,16.2-16.2h137.7c42.7,0,77.5,34.8,77.5,77.5v244.3c0,8.9-7.3,16.2-16.2,16.2Z"/>
  </g>
</svg>