<?xml version="1.0" encoding="UTF-8"?>
<svg id="Layer_1" xmlns="http://www.w3.org/2000/svg" version="1.1" xmlns:xlink="http://www.w3.org/1999/xlink" viewBox="0 0 1280 1024">
  <!-- Generator: Adobe Illustrator 29.2.1, SVG Export Plug-In . SVG Version: 2.1.0 Build 116)  -->
  <defs>
    <style>
      .st0 {
        fill: #f7931e;
      }
    </style>
  </defs>
  <g>
    <g>
      <g>
        <path class="st0" d="M867.9,435.3h-21.2c-27.9,0-50.5-26-50.5-57.9s22.7-57.9,50.5-57.9h42.4c27.9,0,50.5,26,50.5,57.9s-7.1,15.9-15.9,15.9-15.9-7.1-15.9-15.9c0-14.2-8.6-26.2-18.8-26.2h-42.4c-10.2,0-18.8,12-18.8,26.2s8.6,26.2,18.8,26.2h21.2c8.8,0,15.9,7.1,15.9,15.9,0,8.7-7.1,15.9-15.9,15.9Z"/>
        <path class="st0" d="M889.1,519.4h-42.4c-27.9,0-50.5-26-50.5-57.9s7.1-15.9,15.9-15.9,15.9,7.1,15.9,15.9c0,14.2,8.6,26.2,18.8,26.2h42.4c10.2,0,18.8-12,18.8-26.2s-8.6-26.2-18.8-26.2h-21.2c-8.8,0-15.9-7.1-15.9-15.9s7.1-15.9,15.9-15.9h21.2c27.9,0,50.5,26,50.5,57.9s-22.7,57.9-50.5,57.9Z"/>
      </g>
      <path class="st0" d="M867.9,545c-8.8,0-15.9-7.1-15.9-15.9v-219.4c0-8.8,7.1-15.9,15.9-15.9s15.9,7.1,15.9,15.9v219.4c0,8.8-7.1,15.9-15.9,15.9Z"/>
    </g>
    <path class="st0" d="M867.9,634.4c-15.9,0-31.8-1.8-47.2-5.2-29.6-6.6-57.4-19.4-82.3-38.1-54.3-41.1-85.4-103.6-85.4-171.6s31.1-130.5,85.3-171.6c25-18.7,52.8-31.6,82.4-38.2,15.4-3.4,31.2-5.2,47.1-5.2,118.5,0,214.9,96.4,214.9,214.9,0,118.5-96.4,214.9-214.9,214.9ZM867.9,236.3c-13.6,0-27.1,1.5-40.2,4.4-25.3,5.6-48.9,16.6-70.3,32.6-46.2,34.9-72.7,88.2-72.7,146.2s26.5,111.3,72.7,146.2c21.3,16,44.9,26.9,70.2,32.5,13.1,3,26.7,4.5,40.2,4.5,101,0,183.2-82.2,183.2-183.2s-82.2-183.2-183.2-183.2Z"/>
  </g>
  <g>
    <path class="st0" d="M251.6,482.4c-31.2,0-56.6-25.4-56.6-56.6s25.4-56.6,56.6-56.6,56.6,25.4,56.6,56.6-25.4,56.6-56.6,56.6ZM251.6,400.9c-13.7,0-24.9,11.2-24.9,24.9s11.2,24.9,24.9,24.9,24.9-11.2,24.9-24.9c0-13.7-11.2-24.9-24.9-24.9Z"/>
    <path class="st0" d="M222.8,412.8c-4.1,0-8.1-1.5-11.2-4.6l-37.4-37.4c-6.2-6.2-6.2-16.2,0-22.4,6.2-6.2,16.2-6.2,22.4,0l37.4,37.4c6.2,6.2,6.2,16.2,0,22.4-3.1,3.1-7.1,4.6-11.2,4.6Z"/>
    <path class="st0" d="M280.4,412.8c-4.1,0-8.1-1.5-11.2-4.6-6.2-6.2-6.2-16.2,0-22.4l57.9-57.9c6.2-6.2,16.2-6.2,22.4,0,6.2,6.2,6.2,16.2,0,22.4l-57.9,57.9c-3.1,3.1-7.1,4.6-11.2,4.6Z"/>
    <path class="st0" d="M250.6,634.4c-15.9,0-31.8-1.8-47.1-5.2-29.6-6.6-57.3-19.4-82.3-38.1-54.3-41.1-85.4-103.6-85.4-171.6s31.1-130.5,85.3-171.6c25.1-18.8,52.8-31.6,82.4-38.2,15.4-3.4,31.2-5.2,47.1-5.2,118.5,0,214.9,96.4,214.9,214.9s-96.4,214.9-214.9,214.9ZM250.6,236.3c-13.6,0-27.1,1.5-40.2,4.4-25.2,5.6-48.9,16.6-70.3,32.6-46.2,34.9-72.7,88.2-72.7,146.2s26.5,111.3,72.7,146.2c21.3,16,45,26.9,70.2,32.5,13.1,3,26.7,4.5,40.2,4.5,101,0,183.2-82.2,183.2-183.2s-82.2-183.2-183.2-183.2Z"/>
  </g>
  <path class="st0" d="M406.4,714.3H94.8c-8.8,0-15.9-7.1-15.9-15.9s7.1-15.9,15.9-15.9h311.6c8.8,0,15.9,7.1,15.9,15.9s-7.1,15.9-15.9,15.9Z"/>
  <path class="st0" d="M1023.7,714.3h-311.6c-8.8,0-15.9-7.1-15.9-15.9s7.1-15.9,15.9-15.9h311.6c8.8,0,15.9,7.1,15.9,15.9s-7.1,15.9-15.9,15.9Z"/>
  <path class="st0" d="M558.2,916.5c-8.8,0-15.9-7.1-15.9-15.9V297.7c0-8.8,7.1-15.9,15.9-15.9s15.9,7.1,15.9,15.9v602.9c0,8.8-7.1,15.9-15.9,15.9Z"/>
  <path class="st0" d="M867.9,818.2h-220.3c-4.2,0-8.2-1.7-11.2-4.7l-85.1-85.1c-6.2-6.2-6.2-16.2,0-22.4,6.2-6.2,16.2-6.2,22.4,0l80.5,80.5h197.8v-88c0-8.8,7.1-15.9,15.9-15.9s15.9,7.1,15.9,15.9v103.9c0,8.8-7.1,15.9-15.9,15.9Z"/>
  <path class="st0" d="M470.9,818.2h-220.3c-8.8,0-15.9-7.1-15.9-15.9v-103.9c0-8.8,7.1-15.9,15.9-15.9s15.9,7.1,15.9,15.9v88h197.8l80.5-80.5c6.2-6.2,16.2-6.2,22.4,0s6.2,16.2,0,22.4l-85.1,85.1c-3,3-7,4.7-11.2,4.7Z"/>
  <path class="st0" d="M667,916.5h-217.7c-8.8,0-15.9-7.1-15.9-15.9s7.1-15.9,15.9-15.9h217.7c8.8,0,15.9,7.1,15.9,15.9s-7.1,15.9-15.9,15.9Z"/>
</svg>